<svg width="79" height="78" viewBox="0 0 79 78" fill="none" xmlns="http://www.w3.org/2000/svg">
<path fill-rule="evenodd" clip-rule="evenodd" d="M28.3571 2.41452C19.9421 6.67152 15.1351 14.5295 15.1351 24.0295C15.1351 31.1455 17.6221 35.7865 26.7291 45.6675C31.9341 51.3155 34.7661 55.2985 35.6131 58.1675C36.6021 61.5195 37.3201 62.3775 39.1351 62.3775C40.9501 62.3775 41.6681 61.5195 42.6571 58.1675C43.5041 55.2985 46.3361 51.3155 51.5411 45.6675C61.4571 34.9095 63.4891 30.7735 62.9581 22.4335C62.1451 9.66852 53.0831 0.748522 40.2541 0.0865224C34.6511 -0.203478 32.8251 0.154522 28.3571 2.41452ZM42.5654 19.8774C46.0654 23.3774 43.6931 26.7726 42.8793 27.5864C42.0654 28.4003 40.0654 28.8774 39.0654 28.8774C38.0654 28.8774 36.5654 28.8774 35.1351 27.5864C34.0654 26.621 32.0654 23.3774 35.1351 19.8775C36.5654 18.5 37.9 18.5 39 18.5C40.1 18.5 41.4654 18.7774 42.5654 19.8774ZM16.1351 50.3085C9.83206 52.0625 3.54906 55.4485 1.70106 58.0865C-5.69094 68.6405 11.7811 77.8775 39.1351 77.8775C66.4951 77.8775 83.9611 68.6405 76.5651 58.0815C74.6461 55.3405 67.3231 51.5885 60.7511 49.9785C56.2071 48.8645 55.7011 48.9365 53.5011 51.0035C52.2001 52.2255 51.1351 53.5525 51.1351 53.9515C51.1351 54.3505 54.4021 55.4035 58.3951 56.2915C65.7391 57.9255 72.1351 60.9915 72.1351 62.8775C72.1351 64.7705 65.7301 67.8305 58.1451 69.5625C43.0541 73.0065 17.9841 71.1125 9.37506 65.8775C7.59306 64.7935 6.13506 63.4435 6.13506 62.8775C6.13506 60.9915 12.5311 57.9255 19.8751 56.2915C23.8681 55.4035 27.1351 54.3505 27.1351 53.9515C27.1351 52.8765 22.6551 48.8635 21.5711 48.9665C21.0561 49.0165 18.6101 49.6195 16.1351 50.3085Z" fill="white"/>
</svg>
